<svg class="css-ze2te4 css-qd6ojx" viewBox="0 0 140 140.15333830316408"><g transform="translate(-6.5936479396079495, -6.5936479396079495) scale(1.5334064295660195)" class="css-1tggwmt" fill="#FFBC59"><g xmlns="http://www.w3.org/2000/svg"><g><circle fill="#8AC4C3" cx="48.9" cy="50.1" r="5"></circle></g><g><circle fill="#8AC4C3" cx="25.3" cy="35.7" r="5"></circle></g><g><circle fill="#8AC4C3" cx="10.4" cy="35.7" r="3.5"></circle></g><g><circle fill="#8AC4C3" cx="7.8" cy="50.1" r="3.5"></circle></g><g><circle fill="#8AC4C3" cx="48.9" cy="22.9" r="3.5"></circle></g><g><circle fill="#8AC4C3" cx="48.9" cy="77.2" r="3.5"></circle></g><g><circle fill="#8AC4C3" cx="62.4" cy="74.6" r="3.5"></circle></g><g><circle fill="#8AC4C3" cx="62.4" cy="26.4" r="3.5"></circle></g><g><circle fill="#8AC4C3" cx="73.3" cy="36.7" r="3.5"></circle></g><g><circle fill="#8AC4C3" cx="73.3" cy="63" r="3.5"></circle></g><g><circle fill="#8AC4C3" cx="76.8" cy="50.1" r="3.5"></circle></g><g><circle fill="#8AC4C3" cx="16.9" cy="23.2" r="3.5"></circle></g><g><circle fill="#8AC4C3" cx="28.9" cy="14.4" r="3.5"></circle></g><g><circle fill="#8AC4C3" cx="41.9" cy="9.3" r="3.5"></circle></g><g><circle fill="#8AC4C3" cx="10.4" cy="64.8" r="3.5"></circle></g><g><circle fill="#8AC4C3" cx="16.9" cy="77.2" r="3.5"></circle></g><g><circle fill="#8AC4C3" cx="28.9" cy="86.1" r="3.5"></circle></g><g><circle fill="#8AC4C3" cx="41.9" cy="91.1" r="3.5"></circle></g><g><circle fill="#8AC4C3" cx="35.4" cy="26.7" r="5"></circle></g><g><circle fill="#8AC4C3" cx="35.4" cy="73.1" r="5"></circle></g><g><circle fill="#8AC4C3" cx="41.9" cy="37.7" r="5"></circle></g><g><circle fill="#8AC4C3" cx="41.9" cy="61.9" r="5"></circle></g><g><circle fill="#8AC4C3" cx="25.3" cy="63" r="5"></circle></g><g><circle fill="#8AC4C3" cx="56.4" cy="61.6" r="5"></circle></g><g><circle fill="#8AC4C3" cx="56.4" cy="37.7" r="5"></circle></g><g><circle fill="#8AC4C3" cx="35.4" cy="50.1" r="5"></circle></g><g><circle fill="#8AC4C3" cx="22" cy="50.1" r="5"></circle></g><g><circle fill="#8AC4C3" cx="62.4" cy="50.1" r="5"></circle></g><g><circle fill="#8AC4C3" cx="90.6" cy="50.1" r="5"></circle></g><g><circle fill="#8AC4C3" cx="87.9" cy="35.7" r="5"></circle></g><g><circle fill="#8AC4C3" cx="80.5" cy="22.9" r="5"></circle></g><g><circle fill="#8AC4C3" cx="70" cy="14.4" r="5"></circle></g><g><circle fill="#8AC4C3" cx="56.4" cy="9.3" r="5"></circle></g><g><circle fill="#8AC4C3" cx="87.9" cy="64.3" r="5"></circle></g><g><circle fill="#8AC4C3" cx="80.5" cy="77.1" r="5"></circle></g><g><circle fill="#8AC4C3" cx="70" cy="85.6" r="5"></circle></g><g><circle fill="#8AC4C3" cx="56.4" cy="90.7" r="5"></circle></g></g></g></svg>