<svg xmlns="http://www.w3.org/2000/svg" width="787" height="245" viewBox="0 0 787 245">
<g>
<path d="M 0.00 0.00 L 787.00 0.00 L 787.00 245.00 L 0.00 245.00 ZM 207.00 198.42 C219.24,201.65 239.04,199.58 250.17,193.92 C265.69,186.03 277.97,170.08 281.55,153.16 C285.99,132.25 280.70,110.84 267.52,96.29 C247.25,73.93 215.58,69.71 190.69,86.06 C168.86,100.41 158.81,126.28 164.50,153.50 C168.93,174.72 186.16,192.92 207.00,198.42 ZM 397.00 78.20 L 397.00 198.00 L 423.98 198.00 L 424.50 123.87 L 439.44 147.19 C447.65,160.01 456.70,174.10 459.54,178.50 C462.38,182.90 466.34,189.09 468.34,192.25 L 471.98 198.00 L 499.02 198.00 L 498.50 78.50 L 472.02 77.94 L 471.50 152.50 L 457.00 129.73 C449.02,117.21 440.12,103.26 437.20,98.73 C434.29,94.21 430.11,87.67 427.91,84.21 L 423.92 77.91 L 410.46 78.06 ZM 104.00 130.09 L 104.00 199.00 L 139.00 199.00 L 139.00 130.45 L 167.00 88.25 C182.40,65.04 195.00,45.81 195.00,45.53 C195.00,45.24 185.66,45.01 174.25,45.02 L 153.50 45.03 L 149.19 51.77 C131.25,79.75 122.36,92.99 121.50,92.96 C120.95,92.94 119.18,90.81 117.56,88.21 C115.95,85.62 112.29,79.90 109.43,75.50 C106.57,71.10 100.96,62.44 96.96,56.25 L 89.68 45.00 L 68.78 45.00 C52.34,45.00 48.04,45.27 48.62,46.25 C49.02,46.94 61.65,66.08 76.68,88.79 ZM 555.50 78.50 L 554.98 198.00 L 568.49 198.00 C578.61,198.00 582.01,197.69 582.03,196.75 C582.05,196.06 582.04,185.07 582.00,172.33 C581.97,159.58 582.29,148.96 582.72,148.72 C583.15,148.48 593.16,159.47 604.96,173.14 L 626.43 198.00 L 664.13 198.00 L 652.82 185.24 C646.59,178.22 636.78,167.11 631.00,160.55 C625.22,154.00 617.91,145.74 614.75,142.21 C611.59,138.69 609.00,135.45 609.00,135.03 C609.00,134.61 619.53,121.95 632.39,106.88 C645.26,91.82 655.58,79.16 655.33,78.75 C655.09,78.34 647.95,78.00 639.47,78.00 L 624.06 78.00 L 612.76 91.25 C606.54,98.54 597.42,109.34 592.48,115.25 C587.55,121.16 583.18,126.00 582.77,126.00 C582.37,126.00 581.92,115.31 581.77,102.25 L 581.50 78.50 ZM 324.00 199.29 C329.15,200.19 345.84,199.96 351.57,198.91 C367.75,195.93 378.15,186.03 382.45,169.53 C383.73,164.60 384.00,156.21 384.00,120.76 L 384.00 77.94 L 370.75 78.22 L 357.50 78.50 L 356.50 158.50 L 354.00 163.50 C350.47,170.56 346.40,173.00 338.17,173.00 C328.93,173.00 323.46,170.23 320.63,164.10 C318.59,159.68 318.49,157.87 318.20,118.82 L 317.90 78.14 L 304.70 78.32 L 291.50 78.50 L 291.50 124.00 C291.50,169.08 291.52,169.55 293.79,175.15 C299.04,188.14 309.89,196.81 324.00,199.29 ZM 690.14 198.48 C697.92,200.26 717.31,199.78 724.12,197.63 C741.38,192.19 750.24,180.69 750.41,163.50 C750.56,147.38 744.13,140.04 718.39,127.00 C699.43,117.39 697.07,115.29 698.57,109.36 C701.04,99.62 715.12,98.46 731.31,106.66 C734.00,108.02 736.33,108.99 736.48,108.82 C737.01,108.23 747.00,88.04 747.00,87.56 C747.00,86.48 737.53,81.64 732.11,79.96 C707.32,72.24 685.93,78.10 676.14,95.28 C669.59,106.76 669.93,119.38 677.04,129.32 C682.09,136.37 687.70,140.41 702.27,147.47 C716.61,154.42 721.00,158.17 721.00,163.47 C721.00,169.22 716.13,173.59 708.69,174.52 C705.22,174.95 701.18,174.78 698.39,174.08 C692.89,172.69 678.92,165.82 677.07,163.59 C676.35,162.71 675.42,162.00 675.01,162.00 C674.27,162.00 665.65,175.70 662.59,181.75 L 660.95 184.99 L 666.23 188.30 C673.52,192.88 682.61,196.75 690.14,198.48 ZM 236.50 171.07 C227.18,175.16 212.58,173.97 205.48,168.55 C185.41,153.25 189.35,113.37 211.75,104.99 C217.80,102.73 227.19,102.38 233.24,104.19 C238.67,105.82 246.38,113.02 249.41,119.30 C258.46,138.07 251.92,164.32 236.50,171.07 ZM 513.50 78.50 L 512.98 198.00 L 541.02 198.00 L 540.50 78.50 ZM 520.40 63.31 C525.06,66.03 536.44,65.33 541.25,62.03 C551.79,54.81 553.84,40.33 545.72,30.48 C532.54,14.48 505.57,26.27 508.39,46.79 C509.41,54.30 512.69,58.81 520.40,63.31 Z" fill="rgb(1,98,156)"/>
<path d="M 207.00 198.42 C186.16,192.92 168.93,174.72 164.50,153.50 C158.81,126.28 168.86,100.41 190.69,86.06 C215.58,69.71 247.25,73.93 267.52,96.29 C280.70,110.84 285.99,132.25 281.55,153.16 C277.97,170.08 265.69,186.03 250.17,193.92 C239.04,199.58 219.24,201.65 207.00,198.42 ZM 236.50 171.07 C251.92,164.32 258.46,138.07 249.41,119.30 C246.38,113.02 238.67,105.82 233.24,104.19 C227.19,102.38 217.80,102.73 211.75,104.99 C189.35,113.37 185.41,153.25 205.48,168.55 C212.58,173.97 227.18,175.16 236.50,171.07 ZM 324.00 199.29 C309.89,196.81 299.04,188.14 293.79,175.15 C291.52,169.55 291.50,169.08 291.50,124.00 L 291.50 78.50 L 304.70 78.32 L 317.90 78.14 L 318.20 118.82 C318.49,157.87 318.59,159.68 320.63,164.10 C323.46,170.23 328.93,173.00 338.17,173.00 C346.40,173.00 350.47,170.56 354.00,163.50 L 356.50 158.50 L 357.00 118.50 L 357.50 78.50 L 370.75 78.22 L 384.00 77.94 L 384.00 120.76 C384.00,156.21 383.73,164.60 382.45,169.53 C378.15,186.03 367.75,195.93 351.57,198.91 C345.84,199.96 329.15,200.19 324.00,199.29 ZM 690.14 198.48 C682.61,196.75 673.52,192.88 666.23,188.30 L 660.95 184.99 L 662.59 181.75 C665.65,175.70 674.27,162.00 675.01,162.00 C675.42,162.00 676.35,162.71 677.07,163.59 C678.92,165.82 692.89,172.69 698.39,174.08 C701.18,174.78 705.22,174.95 708.69,174.52 C716.13,173.59 721.00,169.22 721.00,163.47 C721.00,158.17 716.61,154.42 702.27,147.47 C687.70,140.41 682.09,136.37 677.04,129.32 C669.93,119.38 669.59,106.76 676.14,95.28 C685.93,78.10 707.32,72.24 732.11,79.96 C737.53,81.64 747.00,86.48 747.00,87.56 C747.00,88.04 737.01,108.23 736.48,108.82 C736.33,108.99 734.00,108.02 731.31,106.66 C715.12,98.46 701.04,99.62 698.57,109.36 C697.07,115.29 699.43,117.39 718.39,127.00 C744.13,140.04 750.56,147.38 750.41,163.50 C750.24,180.69 741.38,192.19 724.12,197.63 C717.31,199.78 697.92,200.26 690.14,198.48 ZM 104.00 164.54 L 104.00 130.09 L 76.68 88.79 C61.65,66.08 49.02,46.94 48.62,46.25 C48.04,45.27 52.34,45.00 68.78,45.00 L 89.68 45.00 L 96.96 56.25 C100.96,62.44 106.57,71.10 109.43,75.50 C112.29,79.90 115.95,85.62 117.56,88.21 C119.18,90.81 120.95,92.94 121.50,92.96 C122.36,92.99 131.25,79.75 149.19,51.77 L 153.50 45.03 L 174.25 45.02 C185.66,45.01 195.00,45.24 195.00,45.53 C195.00,45.81 182.40,65.04 167.00,88.25 L 139.00 130.45 L 139.00 164.72 L 139.00 199.00 L 121.50 199.00 L 104.00 199.00 L 104.00 164.54 ZM 397.00 138.10 L 397.00 78.20 L 410.46 78.06 L 423.92 77.91 L 427.91 84.21 C430.11,87.67 434.29,94.21 437.20,98.73 C440.12,103.26 449.02,117.21 457.00,129.73 L 471.50 152.50 L 471.76 115.22 L 472.02 77.94 L 485.26 78.22 L 498.50 78.50 L 498.76 138.25 L 499.02 198.00 L 485.50 198.00 L 471.98 198.00 L 468.34 192.25 C466.34,189.09 462.38,182.90 459.54,178.50 C456.70,174.10 447.65,160.01 439.44,147.19 L 424.50 123.87 L 424.24 160.94 L 423.98 198.00 L 410.49 198.00 L 397.00 198.00 L 397.00 138.10 ZM 513.24 138.25 L 513.50 78.50 L 527.00 78.50 L 540.50 78.50 L 540.76 138.25 L 541.02 198.00 L 527.00 198.00 L 512.98 198.00 L 513.24 138.25 ZM 555.24 138.25 L 555.50 78.50 L 568.50 78.50 L 581.50 78.50 L 581.77 102.25 C581.92,115.31 582.37,126.00 582.77,126.00 C583.18,126.00 587.55,121.16 592.48,115.25 C597.42,109.34 606.54,98.54 612.76,91.25 L 624.06 78.00 L 639.47 78.00 C647.95,78.00 655.09,78.34 655.33,78.75 C655.58,79.16 645.26,91.82 632.39,106.88 C619.53,121.95 609.00,134.61 609.00,135.03 C609.00,135.45 611.59,138.69 614.75,142.21 C617.91,145.74 625.22,154.00 631.00,160.55 C636.78,167.11 646.59,178.22 652.82,185.24 L 664.13 198.00 L 645.28 198.00 L 626.43 198.00 L 604.96 173.14 C593.16,159.47 583.15,148.48 582.72,148.72 C582.29,148.96 581.97,159.58 582.00,172.33 C582.04,185.07 582.05,196.06 582.03,196.75 C582.01,197.69 578.61,198.00 568.49,198.00 L 554.98 198.00 L 555.24 138.25 ZM 520.40 63.31 C512.69,58.81 509.41,54.30 508.39,46.79 C505.57,26.27 532.54,14.48 545.72,30.48 C553.84,40.33 551.79,54.81 541.25,62.03 C536.44,65.33 525.06,66.03 520.40,63.31 Z" fill="rgb(138,196,195)"/>
</g>
</svg>